<svg xmlns="http://www.w3.org/2000/svg" width="256" height="256" viewBox="0 0 48 48" role="img" aria-label="Mira mark — monochrome">
  <title>Mira — aperture mark, monochrome</title>
  <circle cx="24" cy="24" r="22" fill="none" stroke="currentColor" stroke-width="1.75"></circle>
  <g fill="currentColor">
    <path d="M 24 4.5 L 38.7 21 L 24 21 Z" opacity="0.18" transform="rotate(0 24 24)"></path>
    <path d="M 24 4.5 L 38.7 21 L 24 21 Z" opacity="0.24" transform="rotate(60 24 24)"></path>
    <path d="M 24 4.5 L 38.7 21 L 24 21 Z" opacity="0.18" transform="rotate(120 24 24)"></path>
    <path d="M 24 4.5 L 38.7 21 L 24 21 Z" opacity="0.24" transform="rotate(180 24 24)"></path>
    <path d="M 24 4.5 L 38.7 21 L 24 21 Z" opacity="0.18" transform="rotate(240 24 24)"></path>
    <path d="M 24 4.5 L 38.7 21 L 24 21 Z" opacity="0.24" transform="rotate(300 24 24)"></path>
  </g>
  <g fill="none" stroke="currentColor" stroke-width="0.9" stroke-linejoin="round" opacity="0.85">
    <path d="M 24 4.5 L 38.7 21 L 24 21 Z" transform="rotate(0 24 24)"></path>
    <path d="M 24 4.5 L 38.7 21 L 24 21 Z" transform="rotate(60 24 24)"></path>
    <path d="M 24 4.5 L 38.7 21 L 24 21 Z" transform="rotate(120 24 24)"></path>
    <path d="M 24 4.5 L 38.7 21 L 24 21 Z" transform="rotate(180 24 24)"></path>
    <path d="M 24 4.5 L 38.7 21 L 24 21 Z" transform="rotate(240 24 24)"></path>
    <path d="M 24 4.5 L 38.7 21 L 24 21 Z" transform="rotate(300 24 24)"></path>
  </g>
  <circle cx="24" cy="24" r="5.5" fill="currentColor"></circle>
</svg>